<svg height="212" viewBox="0 0 88 212" width="88" xmlns="http://www.w3.org/2000/svg"><g fill="none" fill-rule="evenodd"><g fill="#fff" fill-rule="nonzero"><path d="m37.2375001 19.1159544 9.3333333-9.18996708-9.2916667-9.21052632-2.3958333 2.34375 5.2083333 5.18092105h-15.75v3.37171055h15.75l-5.25 5.1398026z"/><path d="m7.98580686 16.8735271 5.98684214-6.053125-5.96011517-6.0666667-1.53680099 1.54375 3.34087171 3.4125h-10.10279605v2.2208333h10.10279605l-3.36759868 3.3854167z" transform="matrix(0 1 -1 0 17.65686 3.970402)"/></g><circle cx="23.5" cy="55.5" fill="#2b2b2b" r="23.5"/><g transform="translate(14 45)"><g fill="#fff"><path d="m.27675404.13827834h3.06665507c.14027923 0 .25399803.1137188.25399803.25399804v18.91360112c0 .0676647-.02699885.1325326-.07500797.1802153l-1.53332753 1.5229027c-.09905039.098377-.25892974.098377-.35798013 0l-1.53332753-1.5229027c-.04800912-.0476827-.07500797-.1125506-.07500797-.1802153v-18.91360112c0-.14027924.11371879-.25399804.25399803-.25399804z"/><path d="m4.36206962.13827834h3.06665506c.14027924 0 .25399803.1137188.25399803.25399804v18.91360112c0 .0676647-.02699885.1325326-.07500797.1802153l-1.53332753 1.5229027c-.09905039.098377-.25892974.098377-.35798012 0l-1.53332754-1.5229027c-.04800912-.0476827-.07500797-.1125506-.07500797-.1802153v-18.91360112c0-.14027924.1137188-.25399804.25399804-.25399804z"/><path d="m8.44738519.13827834h3.06665511c.1402792 0 .253998.1137188.253998.25399804v18.91360112c0 .0676647-.0269989.1325326-.075008.1802153l-1.5333275 1.5229027c-.0990504.098377-.25892975.098377-.35798014 0l-1.53332753-1.5229027c-.04800912-.0476827-.07500797-.1125506-.07500797-.1802153v-18.91360112c0-.14027924.11371879-.25399804.25399803-.25399804z"/><path d="m12.5327008.13827834h3.066655c.1402793 0 .2539981.1137188.2539981.25399804v18.91360112c0 .0676647-.0269989.1325326-.075008.1802153l-1.5333275 1.5229027c-.0990504.098377-.2589298.098377-.3579802 0l-1.5333275-1.5229027c-.0480091-.0476827-.075008-.1125506-.075008-.1802153v-18.91360112c0-.14027924.1137188-.25399804.2539981-.25399804z"/><path d="m16.6180163.13827834h3.0666551c.1402792 0 .253998.1137188.253998.25399804v18.91360112c0 .0676647-.0269988.1325326-.0750079.1802153l-1.5333276 1.5229027c-.0990504.098377-.2589297.098377-.3579801 0l-1.5333275-1.5229027c-.0480091-.0476827-.075008-.1125506-.075008-.1802153v-18.91360112c0-.14027924.1137188-.25399804.253998-.25399804z"/></g><g fill="#232429"><path d="m15.0873572.02296042h2.0426578v12.25648338c0 .2337988-.1895313.4233301-.4233301.4233301h-1.1959977c-.2337987 0-.42333-.1895313-.42333-.4233301z"/><path d="m6.91672604.02296042h2.04265779v12.25648338c0 .2337988-.18953132.4233301-.42333006.4233301h-1.19599768c-.23379873 0-.42333005-.1895313-.42333005-.4233301z"/><path d="m2.83141047.11531793h2.04265778v12.25648337c0 .2337988-.18953132.4233301-.42333005.4233301h-1.19599768c-.23379873 0-.42333005-.1895313-.42333005-.4233301z"/></g></g><circle cx="23.5" cy="106.5" fill="#93bfa6" r="23.5"/><g transform="translate(19.752739 95)"><path d="m9.41023282 4.4287075h-1.00736174l-8.30459196 16.3143463v.9090826h17.02687048v-.9090826zm-7.46921869 15.9703701 6.97277766-13.97407383 6.54061241 13.82051263z" fill="#2b2b2b"/><path d="m0 6.1715427v-6.16584414l4.5269077 1.59004878-4.3271581 1.55615732" stroke="#2b2b2b" stroke-width="1.22849" transform="translate(8.906553)"/></g><g transform="translate(9 95.460684)"><path d="m9.41023282 3.96802375h-1.00736174l-8.30459196 16.31434635v.9090825h17.02687048v-.9090825zm-7.46921869 15.97037005 6.97277766-13.97407379 6.54061241 13.82051259z" fill="#2b2b2b"/><g stroke="#2b2b2b" stroke-width="1.22849" transform="translate(6.910256)"><path d="m3.580796 7.707155-3.439232-7.701456"/><path d="m4.195041 7.707155-3.899915-7.701456" transform="matrix(-1 0 0 1 4.490166 0)"/></g></g><g fill="#2b2b2b"><circle cx="23.5" cy="157.5" r="23.5"/><g stroke-width="1.421053"><g stroke="#e67d58" transform="translate(6 145)"><path d="m4.766864 4.766864h16.832469v16.832469h-16.832469z" transform="matrix(.70710678 .70710678 -.70710678 .70710678 13.183099 -5.460618)"/><path d="m14.400667 4.766864h16.832469v16.832469h-16.832469z" transform="matrix(.70710678 .70710678 -.70710678 .70710678 16.004774 -12.272745)"/><path d="m9.837287 4.766864h16.832469v16.832469h-16.832469z" transform="matrix(.70710678 .70710678 -.70710678 .70710678 14.668191 -9.045948)"/></g><circle cx="24.253521" cy="158.183099" r="2.331727" stroke="#e48257"/></g></g><path d="m4 196c2.22222222 4 4.44444444 6 6.6666667 6 2.2222222 0 4.4444444-2 6.6666666-6 2.2222223-4 4.4444445-6 6.6666667-6s4.4444444 2 6.6666667 6c2.2222222 4 4.4444444 6 6.6666666 6 2.2222223 0 4.4444445-2 6.6666667-6s4.4444444-6 6.6666667-6c2.2222222 0 4.4444444 2 6.6666666 6 2.2222223 4 4.4444445 6 6.6666667 6s4.4444444-2 6.6666667-6c2.2222222-4 4.4444444-6 6.6666666-6 2.2222223 0 4.4444445 2 6.6666667 6" stroke="#fff" stroke-linecap="round" stroke-width="3"/></g></svg>