<svg height="370" viewBox="0 0 559 370" width="559" xmlns="http://www.w3.org/2000/svg"><g fill="none" fill-rule="evenodd" stroke="#2b2b2b" stroke-width="2" transform="translate(1 1)"><path d="m0 16c11.6666667 10.6666667 23.3333333 16 35 16s23.3333333-5.3333333 35-16c11.6666667-10.66666667 23.3333333-16 35-16 11.666667 0 23.333333 5.33333333 35 16 11.666667 10.6666667 23.333333 16 35 16s23.333333-5.3333333 35-16c11.666667-10.66666667 23.333333-16 35-16s23.333333 5.33333333 35 16c11.666667 10.6666667 23.333333 16 35 16s23.333333-5.3333333 35-16c11.666667-10.66666667 23.333333-16 35-16s23.333333 5.33333333 35 16c11.666667 10.6666667 23.333333 16 35 16s23.333333-5.3333333 35-16c11.666667-10.66666667 23.333333-16 35-16s23.333333 5.33333333 35 16"/><path d="m0 64c11.6666667 10.6666667 23.3333333 16 35 16s23.3333333-5.3333333 35-16 23.3333333-16 35-16c11.666667 0 23.333333 5.3333333 35 16s23.333333 16 35 16 23.333333-5.3333333 35-16 23.333333-16 35-16 23.333333 5.3333333 35 16 23.333333 16 35 16 23.333333-5.3333333 35-16 23.333333-16 35-16 23.333333 5.3333333 35 16 23.333333 16 35 16 23.333333-5.3333333 35-16 23.333333-16 35-16 23.333333 5.3333333 35 16"/><path d="m0 112c11.6666667 10.666667 23.3333333 16 35 16s23.3333333-5.333333 35-16 23.3333333-16 35-16c11.666667 0 23.333333 5.333333 35 16s23.333333 16 35 16 23.333333-5.333333 35-16 23.333333-16 35-16 23.333333 5.333333 35 16 23.333333 16 35 16 23.333333-5.333333 35-16 23.333333-16 35-16 23.333333 5.333333 35 16 23.333333 16 35 16 23.333333-5.333333 35-16 23.333333-16 35-16 23.333333 5.333333 35 16"/><path d="m0 160c11.6666667 10.666667 23.3333333 16 35 16s23.3333333-5.333333 35-16 23.3333333-16 35-16c11.666667 0 23.333333 5.333333 35 16s23.333333 16 35 16 23.333333-5.333333 35-16 23.333333-16 35-16 23.333333 5.333333 35 16 23.333333 16 35 16 23.333333-5.333333 35-16 23.333333-16 35-16 23.333333 5.333333 35 16 23.333333 16 35 16 23.333333-5.333333 35-16 23.333333-16 35-16 23.333333 5.333333 35 16"/><path d="m0 208c11.6666667 10.666667 23.3333333 16 35 16s23.3333333-5.333333 35-16 23.3333333-16 35-16c11.666667 0 23.333333 5.333333 35 16s23.333333 16 35 16 23.333333-5.333333 35-16 23.333333-16 35-16 23.333333 5.333333 35 16 23.333333 16 35 16 23.333333-5.333333 35-16 23.333333-16 35-16 23.333333 5.333333 35 16 23.333333 16 35 16 23.333333-5.333333 35-16 23.333333-16 35-16 23.333333 5.333333 35 16"/><path d="m0 256c11.6666667 10.666667 23.3333333 16 35 16s23.3333333-5.333333 35-16 23.3333333-16 35-16c11.666667 0 23.333333 5.333333 35 16s23.333333 16 35 16 23.333333-5.333333 35-16 23.333333-16 35-16 23.333333 5.333333 35 16 23.333333 16 35 16 23.333333-5.333333 35-16 23.333333-16 35-16 23.333333 5.333333 35 16 23.333333 16 35 16 23.333333-5.333333 35-16 23.333333-16 35-16 23.333333 5.333333 35 16"/><path d="m0 304c11.6666667 10.666667 23.3333333 16 35 16s23.3333333-5.333333 35-16 23.3333333-16 35-16c11.666667 0 23.333333 5.333333 35 16s23.333333 16 35 16 23.333333-5.333333 35-16 23.333333-16 35-16 23.333333 5.333333 35 16 23.333333 16 35 16 23.333333-5.333333 35-16 23.333333-16 35-16 23.333333 5.333333 35 16 23.333333 16 35 16 23.333333-5.333333 35-16 23.333333-16 35-16 23.333333 5.333333 35 16"/><path d="m0 352c11.6666667 10.666667 23.3333333 16 35 16s23.3333333-5.333333 35-16 23.3333333-16 35-16c11.666667 0 23.333333 5.333333 35 16s23.333333 16 35 16 23.333333-5.333333 35-16 23.333333-16 35-16 23.333333 5.333333 35 16 23.333333 16 35 16 23.333333-5.333333 35-16 23.333333-16 35-16 23.333333 5.333333 35 16 23.333333 16 35 16 23.333333-5.333333 35-16 23.333333-16 35-16 23.333333 5.333333 35 16"/></g></svg>